# xmcd
#
# Track frame offsets: 
#        150
#        17195
#        35348
#        54025
#        75533
#        97383
#        114495
#        136563
#        156703
#        174418
#        194670
#        219508
#
# Disc length: 3150 seconds
#
# Revision: 0
# Processed by: cddbd v1.5.2PL0 Copyright (c) Steve Scherf et al.
# Submitted via: ExactAudioCopy v0.99pb5
#
DISCID=a00c4c0c
DTITLE=The Grande - Bleaker St.
DYEAR=2011
DGENRE=Folk/Rock
TTITLE0=Don't Melt Me Down
TTITLE1=Hollow House
TTITLE2=Open Heart
TTITLE3=Rose Tinted Picture
TTITLE4=Life's On Hold
TTITLE5=Wasted
TTITLE6=Ghosts
TTITLE7=Sunset on the Years
TTITLE8=Coffee and Wine
TTITLE9=Smile
TTITLE10=Stay, Tonight
TTITLE11=Bleaker St.
EXTD=
EXTT0=
EXTT1=
EXTT2=
EXTT3=
EXTT4=
EXTT5=
EXTT6=
EXTT7=
EXTT8=
EXTT9=
EXTT10=
EXTT11=
PLAYORDER=
